# xmcd
#
# Track frame offsets:
#	150
#	12825
#	33225
#	50325
#	65325
#	81900
#	100650
#	117225
#	132750
#	147750
#	163275
#	180825
#	199425
#	213450
#	225075
#	243375
#	256575
#	269700
#	285975
#	306450
#
# Disc length: 4394 seconds
#
# Revision: 1
# Processed by: cddbd v1.5.2PL0 Copyright (c) Steve Scherf et al.
# Submitted via: audiograbber 1.83.01
#
DISCID=11112814
DTITLE=Leanne Rimes - AMS9001
DYEAR=1900
DGENRE=country
TTITLE0=Big Deal
TTITLE1=Blue
TTITLE2=Cant Fight The Moonlight
TTITLE3=Cattle Call
TTITLE4=Commitment
TTITLE5=Feels Like Home
TTITLE6=How Do I live
TTITLE7=Hurt Me
TTITLE8=I Need You
TTITLE9=Cowboys Sweetheart
TTITLE10=Light In Your Eyes
TTITLE11=Looking Through Your Eyes
TTITLE12=Nothing New Under The Moon
TTITLE13=On The Side Of Angels
TTITLE14=One Way Ticket
TTITLE15=Please Remember
TTITLE16=These Arms Of Mine
TTITLE17=Unchained Melody
TTITLE18=You Light Up My Life
TTITLE19=unknown
EXTD=
EXTT0=
EXTT1=
EXTT2=
EXTT3=
EXTT4=
EXTT5=
EXTT6=
EXTT7=
EXTT8=
EXTT9=
EXTT10=
EXTT11=
EXTT12=
EXTT13=
EXTT14=
EXTT15=
EXTT16=
EXTT17=
EXTT18=
EXTT19=
PLAYORDER=
